<svg xmlns="http://www.w3.org/2000/svg" width="14.524" height="14.524" viewBox="0 0 14.524 14.524">
  <defs>
    <style>
      .cls-1 {
        fill: #fff;
        fill-rule: evenodd;
      }
    </style>
  </defs>
  <path id="Path_12810" data-name="Path 12810" class="cls-1" d="M-234.18,470.951c-1.808,0-2.064.009-2.814.043a5.345,5.345,0,0,0-1.763.338,3.562,3.562,0,0,0-1.286.838,3.561,3.561,0,0,0-.838,1.286,5.331,5.331,0,0,0-.338,1.763c-.035.774-.043,1.022-.043,2.994s.008,2.219.043,2.994a5.331,5.331,0,0,0,.338,1.763,3.564,3.564,0,0,0,.838,1.286,3.562,3.562,0,0,0,1.286.838,5.336,5.336,0,0,0,1.763.337c.774.035,1.022.044,2.994.044s2.219-.008,2.994-.044a5.333,5.333,0,0,0,1.763-.337,3.563,3.563,0,0,0,1.286-.838,3.562,3.562,0,0,0,.837-1.286,5.317,5.317,0,0,0,.338-1.763c.035-.75.044-1.006.044-2.815v-.359c0-1.809-.009-2.064-.044-2.815a5.317,5.317,0,0,0-.338-1.763,3.558,3.558,0,0,0-.837-1.286,3.562,3.562,0,0,0-1.286-.838,5.342,5.342,0,0,0-1.763-.338c-.75-.034-1.006-.043-2.814-.043Zm4.928,3.386a.871.871,0,0,1-.871.871.871.871,0,0,1-.871-.871.871.871,0,0,1,.871-.871.871.871,0,0,1,.871.871Zm-4.748,6.3a2.421,2.421,0,0,1-2.421-2.421A2.421,2.421,0,0,1-234,475.792a2.421,2.421,0,0,1,2.421,2.421A2.421,2.421,0,0,1-234,480.634Zm0-6.15a3.729,3.729,0,0,1,3.729,3.729A3.729,3.729,0,0,1-234,481.942a3.729,3.729,0,0,1-3.729-3.729A3.729,3.729,0,0,1-234,474.484Zm0-2.224c1.939,0,2.169.007,2.934.042a4.035,4.035,0,0,1,1.349.25,2.261,2.261,0,0,1,.835.543,2.253,2.253,0,0,1,.543.835,4.021,4.021,0,0,1,.25,1.348c.035.766.043,1,.043,2.935s-.008,2.169-.043,2.935a4.022,4.022,0,0,1-.25,1.348,2.257,2.257,0,0,1-.543.835,2.259,2.259,0,0,1-.835.543,4.035,4.035,0,0,1-1.349.25c-.765.035-1,.042-2.934.042s-2.169-.007-2.935-.042a4.029,4.029,0,0,1-1.348-.25,2.251,2.251,0,0,1-.835-.543,2.245,2.245,0,0,1-.543-.835,4.007,4.007,0,0,1-.25-1.348c-.035-.766-.043-1-.043-2.935s.008-2.169.043-2.935a4.006,4.006,0,0,1,.25-1.348,2.241,2.241,0,0,1,.543-.835,2.254,2.254,0,0,1,.835-.543,4.029,4.029,0,0,1,1.348-.25C-236.169,472.267-235.939,472.26-234,472.26Z" transform="translate(241.262 -470.951)"/>
</svg>
