<svg xmlns="http://www.w3.org/2000/svg" width="14.524" height="14.531" viewBox="0 0 14.524 14.531">
  <defs>
    <style>
      .cls-1 {
        fill: #fff;
        fill-rule: evenodd;
      }
    </style>
  </defs>
  <path id="Path_12808" data-name="Path 12808" class="cls-1" d="M-134.819,535.021h-3v-9.687h3v9.687Zm-1.514-10.956h0a1.78,1.78,0,0,1-1.773-1.788,1.781,1.781,0,0,1,1.773-1.788,1.781,1.781,0,0,1,1.773,1.788,1.78,1.78,0,0,1-1.773,1.788Zm12.751,10.956h-2.984v-5.086c0-1.394-.53-2.173-1.633-2.173-1.2,0-1.827.811-1.827,2.173v5.086H-132.9v-9.687h2.876v1.3a3.378,3.378,0,0,1,2.919-1.6c2.054,0,3.525,1.255,3.525,3.85Z" transform="translate(138.106 -520.489)"/>
</svg>
