<svg xmlns="http://www.w3.org/2000/svg" width="15.759" height="12.808" viewBox="0 0 15.759 12.808">
  <defs>
    <style>
      .cls-1 {
        fill: #fff;
        fill-rule: evenodd;
      }
    </style>
  </defs>
  <path id="Path_12828" data-name="Path 12828" class="cls-1" d="M348.946,766.386A9.194,9.194,0,0,1,334.8,774.55a6.5,6.5,0,0,0,4.787-1.338,3.237,3.237,0,0,1-3.02-2.245,3.232,3.232,0,0,0,1.46-.055,3.237,3.237,0,0,1-2.593-3.211,3.212,3.212,0,0,0,1.465.4,3.237,3.237,0,0,1-1-4.316,9.181,9.181,0,0,0,6.664,3.378,3.235,3.235,0,0,1,5.509-2.948,6.491,6.491,0,0,0,2.053-.785,3.249,3.249,0,0,1-1.421,1.789,6.449,6.449,0,0,0,1.856-.509A6.554,6.554,0,0,1,348.946,766.386Z" transform="translate(-334.8 -763.196)"/>
</svg>
