<svg xmlns="http://www.w3.org/2000/svg" width="15.951" height="11.166" viewBox="0 0 15.951 11.166">
  <defs>
    <style>
      .cls-1 {
        fill: #fff;
      }
    </style>
  </defs>
  <path id="Path_93356" data-name="Path 93356" class="cls-1" d="M287.406,103.556a3.5,3.5,0,0,0-3.5-3.5h-8.951a3.5,3.5,0,0,0-3.5,3.5v4.165a3.5,3.5,0,0,0,3.5,3.5h8.951a3.5,3.5,0,0,0,3.5-3.5Zm-5.264,2.395-4.014,1.986c-.158.085-.692-.029-.692-.208v-4.076c0-.181.538-.3.7-.205l3.842,2.091C282.137,105.63,282.3,105.862,282.142,105.951Z" transform="translate(-271.455 -100.056)"/>
</svg>
