<svg xmlns="http://www.w3.org/2000/svg" width="320.63" height="72.08" viewBox="0 0 320.63 72.08">
  <g id="EverestCM-Logo" transform="translate(-17.86 -17.82)">
    <path id="Path_1" data-name="Path 1" d="M55.27,17.82H53.86a36,36,0,0,0-36,36h0a35.89,35.89,0,0,0,.8,7.6L30.55,49.54a5.41,5.41,0,0,1,7.66,0h0a5.43,5.43,0,0,1,0,7.66L23,72.44a35.14,35.14,0,0,0,3.13,4.41L42,61a5.43,5.43,0,0,1,7.66,0h0a5.42,5.42,0,0,1,0,7.67L34.2,84.07a35.19,35.19,0,0,0,4.74,2.61l14-14a5.42,5.42,0,1,1,7.67,7.66L51.14,89.8c.9.07,1.81.1,2.72.1h1.41a36,36,0,0,0,36-36h0a36,36,0,0,0-36-36.08Z" fill="#23a5d6"/>
    <path id="Path_2" data-name="Path 2" d="M38.21,49.54h0a5.41,5.41,0,0,0-7.66,0L18.62,61.46a35.77,35.77,0,0,0,4.35,11L38.21,57.2A5.43,5.43,0,0,0,38.21,49.54Z" fill="#fff"/>
    <path id="Path_3" data-name="Path 3" d="M49.64,61h0A5.43,5.43,0,0,0,42,61L26.1,76.85a36.2,36.2,0,0,0,8.1,7.22L49.64,68.64a5.42,5.42,0,0,0,0-7.64Z" fill="#fff"/>
    <path id="Path_4" data-name="Path 4" d="M60.57,72.72a5.42,5.42,0,0,0-7.67,0l-14,14a35.92,35.92,0,0,0,12.2,3.12l9.43-9.42a5.43,5.43,0,0,0,.04-7.7Z" fill="#fff"/>
    <path id="Path_5" data-name="Path 5" d="M129.34,61.12v4.16H109.75V38.56h19.07v4.16H114.6v7h12.61V53.8H114.6v7.37Z" fill="#171d24"/>
    <path id="Path_6" data-name="Path 6" d="M158.25,38.56,146.87,65.28h-4.78L130.68,38.56h5.26l8.69,20.62,8.77-20.62Z" fill="#171d24"/>
    <path id="Path_7" data-name="Path 7" d="M180.59,61.12v4.16H161V38.56h19.07v4.16H165.85v7h12.61V53.8H165.85v7.37Z" fill="#171d24"/>
    <path id="Path_8" data-name="Path 8" d="M203.08,65.28l-5.33-7.82a8.529,8.529,0,0,1-1,0h-5.89v7.78H186V38.56h10.74c6.87,0,11.12,3.59,11.12,9.5a8.55,8.55,0,0,1-5.56,8.44l6,8.78Zm-6.56-22.52h-5.67V53.41h5.67c4.25,0,6.45-2,6.45-5.35S200.77,42.76,196.52,42.76Z" fill="#171d24"/>
    <path id="Path_9" data-name="Path 9" d="M232.85,61.12v4.16H213.26V38.56h19.07v4.16H218.11v7h12.61V53.8H218.11v7.37Z" fill="#171d24"/>
    <path id="Path_10" data-name="Path 10" d="M236.05,62.46l1.68-3.86a14.25,14.25,0,0,0,8.62,2.94c4.07,0,5.78-1.49,5.78-3.47,0-5.77-15.52-2-15.52-11.92,0-4.31,3.36-8,10.52-8a16.22,16.22,0,0,1,8.7,2.36L254.3,44.4a14.3,14.3,0,0,0-7.2-2.1c-4,0-5.67,1.6-5.67,3.63,0,5.68,15.48,2,15.48,11.79,0,4.28-3.4,8-10.56,8C242.28,65.67,238.22,64.37,236.05,62.46Z" fill="#171d24"/>
    <path id="Path_11" data-name="Path 11" d="M266.64,42.76H258v-4.2h22.16v4.2H271.5V65.28h-4.85Z" fill="#171d24"/>
    <path id="Path_12" data-name="Path 12" d="M282.23,51.92a13.25,13.25,0,0,1,13.69-13.59,12.5,12.5,0,0,1,9.55,3.89L303.72,44A10.21,10.21,0,0,0,296,40.85a10.79,10.79,0,0,0-11,11.07A10.79,10.79,0,0,0,296,63a10.13,10.13,0,0,0,7.72-3.2l1.75,1.79a12.52,12.52,0,0,1-9.58,3.93,13.25,13.25,0,0,1-13.66-13.6Z" fill="#23a5d6"/>
    <path id="Path_13" data-name="Path 13" d="M338.49,38.56V65.28h-2.65V43.9l-10.26,18h-1.31L314,44V65.28h-2.65V38.56h2.28L325,58.37l11.23-19.81Z" fill="#23a5d6"/>
  </g>
</svg>
